{"accessors": [{"bufferView": 1, "componentType": 5126, "count": 216, "max": [0.9913219213485718, 1.8938348293304443, 14.59268856048584], "min": [-1.053154468536377, -3.400163412094116, -1], "type": "VEC3"}, {"bufferView": 1, "byteOffset": 2592, "componentType": 5126, "count": 216, "max": [0.9996917247772217, 0.890419065952301, 1], "min": [-0.9996917843818665, -0.9431605339050293, -1], "type": "VEC3"}, {"bufferView": 0, "componentType": 5125, "count": 336, "max": [215], "min": [0], "type": "SCALAR"}, {"bufferView": 1, "byteOffset": 5184, "componentType": 5126, "count": 228, "max": [1.087679386138916, 2.7402470111846924, 2.821390151977539], "min": [-1.4948168992996216, -2.2168383598327637, -1], "type": "VEC3"}, {"bufferView": 1, "byteOffset": 7920, "componentType": 5126, "count": 228, "max": [0.9542355537414551, 0.8587344288825989, 1], "min": [-0.9542355537414551, -0.8655944466590881, -1], "type": "VEC3"}, {"bufferView": 0, "byteOffset": 1344, "componentType": 5125, "count": 360, "max": [227], "min": [0], "type": "SCALAR"}, {"bufferView": 1, "byteOffset": 10656, "componentType": 5126, "count": 240, "max": [1.6039917469024658, 0.14133207499980927, -0.08945246040821075], "min": [1.3190205097198486, -0.13839669525623322, -0.5230891704559326], "type": "VEC3"}, {"bufferView": 1, "byteOffset": 13536, "componentType": 5126, "count": 240, "max": [0.9861714243888855, 0.9945639967918396, 0.9725306630134583], "min": [-0.9719834923744202, -0.9920771718025208, -0.9619265198707581], "type": "VEC3"}, {"bufferView": 0, "byteOffset": 2784, "componentType": 5125, "count": 240, "max": [239], "min": [0], "type": "SCALAR"}, {"bufferView": 1, "byteOffset": 16416, "componentType": 5126, "count": 216, "max": [1.978858470916748, 2.154952049255371, 0.9296026229858398], "min": [-1.978858470916748, -1.7889736890792847, -1.8177727460861206], "type": "VEC3"}, {"bufferView": 1, "byteOffset": 19008, "componentType": 5126, "count": 216, "max": [0.966678261756897, 0.9507626891136169, 0.990912914276123], "min": [-0.9666780829429626, -0.9657890200614929, -0.9911201000213623], "type": "VEC3"}, {"bufferView": 0, "byteOffset": 3744, "componentType": 5125, "count": 348, "max": [215], "min": [0], "type": "SCALAR"}, {"bufferView": 1, "byteOffset": 21600, "componentType": 5126, "count": 48, "max": [1, 1.278882622718811, -0.6629210710525513], "min": [-1, -0.7263821363449097, -1.220366358757019], "type": "VEC3"}, {"bufferView": 1, "byteOffset": 22176, "componentType": 5126, "count": 48, "max": [0.965925931930542, 0.9507625699043274, 0.1704796999692917], "min": [-0.9659260511398315, -0.9507626295089722, -0.1704796552658081], "type": "VEC3"}, {"bufferView": 0, "byteOffset": 5136, "componentType": 5125, "count": 72, "max": [47], "min": [0], "type": "SCALAR"}, {"bufferView": 1, "byteOffset": 22752, "componentType": 5126, "count": 346, "max": [-0.8899883031845093, 0.08620941638946533, 137.7608642578125], "min": [-1.60347580909729, -3.2999837398529053, -23.01361846923828], "type": "VEC3"}, {"bufferView": 1, "byteOffset": 26904, "componentType": 5126, "count": 346, "max": [0.9995380640029907, 0.5550994873046875, 0.024419700726866722], "min": [-0.9995380640029907, -0.8438305854797363, -0.027398409321904182], "type": "VEC3"}, {"bufferView": 0, "byteOffset": 5424, "componentType": 5125, "count": 528, "max": [345], "min": [0], "type": "SCALAR"}, {"bufferView": 1, "byteOffset": 31056, "componentType": 5126, "count": 216, "max": [-0.9934653639793396, 0.11025531589984894, 1.1476610898971558], "min": [-1.674314260482788, -0.11025570333003998, 0.9271501302719116], "type": "VEC3"}, {"bufferView": 1, "byteOffset": 33648, "componentType": 5126, "count": 216, "max": [1, 0.9658545255661011, 0.9659069180488586], "min": [-1, -0.9658546447753906, -0.9659056067466736], "type": "VEC3"}, {"bufferView": 0, "byteOffset": 7536, "componentType": 5125, "count": 348, "max": [215], "min": [0], "type": "SCALAR"}, {"bufferView": 1, "byteOffset": 36240, "componentType": 5126, "count": 3840, "max": [0.9275349974632263, 0.934404730796814, 0.9365278482437134], "min": [-0.9275349974632263, -0.934404730796814, -0.9365278482437134], "type": "VEC3"}, {"bufferView": 1, "byteOffset": 82320, "componentType": 5126, "count": 3840, "max": [0.9978460073471069, 0.9918100833892822, 0.9948160648345947], "min": [-0.9978460073471069, -0.9918100833892822, -0.9948160648345947], "type": "VEC3"}, {"bufferView": 0, "byteOffset": 8928, "componentType": 5125, "count": 5760, "max": [3839], "min": [0], "type": "SCALAR"}, {"bufferView": 1, "byteOffset": 128400, "componentType": 5126, "count": 3840, "max": [0.9275349974632263, 0.934404730796814, 0.9365278482437134], "min": [-0.9275349974632263, -0.934404730796814, -0.9365278482437134], "type": "VEC3"}, {"bufferView": 1, "byteOffset": 174480, "componentType": 5126, "count": 3840, "max": [0.9978460073471069, 0.9918100833892822, 0.9948160648345947], "min": [-0.9978460073471069, -0.9918100833892822, -0.9948160648345947], "type": "VEC3"}, {"bufferView": 0, "byteOffset": 31968, "componentType": 5125, "count": 5760, "max": [3839], "min": [0], "type": "SCALAR"}, {"bufferView": 1, "byteOffset": 220560, "componentType": 5126, "count": 240, "max": [0.9510578513145447, 0.9999999403953552, 1], "min": [-0.9510578513145447, -0.9999999403953552, -1], "type": "VEC3"}, {"bufferView": 1, "byteOffset": 223440, "componentType": 5126, "count": 240, "max": [0.9920774102210999, 0.9435215592384338, 0.9435238838195801], "min": [-0.9920774102210999, -0.9435215592384338, -0.9435238838195801], "type": "VEC3"}, {"bufferView": 0, "byteOffset": 55008, "componentType": 5125, "count": 240, "max": [239], "min": [0], "type": "SCALAR"}, {"bufferView": 1, "byteOffset": 226320, "componentType": 5126, "count": 240, "max": [0.9510578513145447, 0.9999999403953552, 1], "min": [-0.9510578513145447, -0.9999999403953552, -1], "type": "VEC3"}, {"bufferView": 1, "byteOffset": 229200, "componentType": 5126, "count": 240, "max": [0.9920774102210999, 0.9435215592384338, 0.9435238838195801], "min": [-0.9920774102210999, -0.9435215592384338, -0.9435238838195801], "type": "VEC3"}, {"bufferView": 0, "byteOffset": 55968, "componentType": 5125, "count": 240, "max": [239], "min": [0], "type": "SCALAR"}, {"bufferView": 1, "byteOffset": 232080, "componentType": 5126, "count": 240, "max": [0.9510578513145447, 0.9999999403953552, 1], "min": [-0.9510578513145447, -0.9999999403953552, -1], "type": "VEC3"}, {"bufferView": 1, "byteOffset": 234960, "componentType": 5126, "count": 240, "max": [0.9920774102210999, 0.9435215592384338, 0.9435238838195801], "min": [-0.9920774102210999, -0.9435215592384338, -0.9435238838195801], "type": "VEC3"}, {"bufferView": 0, "byteOffset": 56928, "componentType": 5125, "count": 240, "max": [239], "min": [0], "type": "SCALAR"}, {"bufferView": 1, "byteOffset": 237840, "componentType": 5126, "count": 2304, "max": [1.2165063619613647, 1.2165063619613647, 0.28117606043815613], "min": [-1.2165063619613647, -1.2165063619613647, -0.27048787474632263], "type": "VEC3"}, {"bufferView": 1, "byteOffset": 265488, "componentType": 5126, "count": 2304, "max": [0.9700340032577515, 0.9700338244438171, 0.9706026315689087], "min": [-0.9700339436531067, -0.9700338840484619, -0.9932653307914734], "type": "VEC3"}, {"bufferView": 0, "byteOffset": 57888, "componentType": 5125, "count": 3456, "max": [2303], "min": [0], "type": "SCALAR"}, {"bufferView": 1, "byteOffset": 293136, "componentType": 5126, "count": 2342, "max": [0.9253827333450317, 0.9342057108879089, 1.935942530632019], "min": [-0.9253827333450317, -0.9342057704925537, 0.06405752897262573], "type": "VEC3"}, {"bufferView": 1, "byteOffset": 321240, "componentType": 5126, "count": 2342, "max": [0.999580442905426, 0.9954281449317932, 0.9956350922584534], "min": [-0.999580442905426, -0.9954277276992798, -0.9956352114677429], "type": "VEC3"}, {"bufferView": 0, "byteOffset": 71712, "componentType": 5125, "count": 2610, "max": [2341], "min": [0], "type": "SCALAR"}, {"bufferView": 1, "byteOffset": 349344, "componentType": 5126, "count": 2802, "max": [0.9253827333450317, 0.934404730796814, 1.9365278482437134], "min": [-0.9253827333450317, -0.934404730796814, 0.06347215175628662], "type": "VEC3"}, {"bufferView": 1, "byteOffset": 382968, "componentType": 5126, "count": 2802, "max": [0.9995103478431702, 0.9931811690330505, 0.9925201535224915], "min": [-0.9995103478431702, -0.9931808710098267, -0.9925201535224915], "type": "VEC3"}, {"bufferView": 0, "byteOffset": 82152, "componentType": 5125, "count": 3222, "max": [2801], "min": [0], "type": "SCALAR"}, {"bufferView": 1, "byteOffset": 416592, "componentType": 5126, "count": 2072, "max": [0.9236761331558228, 0.9342057108879089, 1.935942530632019], "min": [-0.9236761331558228, -0.9342057704925537, 0.06405752897262573], "type": "VEC3"}, {"bufferView": 1, "byteOffset": 441456, "componentType": 5126, "count": 2072, "max": [0.9998921751976013, 0.9950716495513916, 0.9956350922584534], "min": [-0.9998922348022461, -0.9950717687606812, -0.9937368631362915], "type": "VEC3"}, {"bufferView": 0, "byteOffset": 95040, "componentType": 5125, "count": 2316, "max": [2071], "min": [0], "type": "SCALAR"}], "asset": {"extras": {"source": "https://sketchfab.com/3d-models/sketchfab-tree-end-of-year-8df472afcaa1485fbeec5467f41989df", "title": "Tree - Low Poly"}, "generator": "Sketchfab-3.54.8-rc1", "version": "2.0"}, "bufferViews": [{"buffer": 0, "byteLength": 104304, "byteOffset": 0, "name": "floatBufferViews", "target": 34963}, {"buffer": 0, "byteLength": 466320, "byteOffset": 104304, "byteStride": 12, "name": "floatBufferViews", "target": 34962}], "buffers": [{"byteLength": 570624, "uri": "scene.bin"}], "materials": [{"doubleSided": true, "emissiveFactor": [0, 0, 0], "name": "Brown", "pbrMetallicRoughness": {"baseColorFactor": [0.214034, 0.0462681, 0.00154364, 1], "metallicFactor": 0, "roughnessFactor": 0.8239417257}}, {"doubleSided": true, "emissiveFactor": [0, 0, 0], "name": "Black", "pbrMetallicRoughness": {"baseColorFactor": [0.00719347, 0.00719347, 0.00719347, 1], "metallicFactor": 0, "roughnessFactor": 0.8239417257}}, {"doubleSided": true, "emissiveFactor": [0, 0, 0], "name": "material", "pbrMetallicRoughness": {"baseColorFactor": [0.8, 0.00178592, 0, 1], "metallicFactor": 0, "roughnessFactor": 0.8239417257}}, {"doubleSided": true, "emissiveFactor": [0, 0, 0], "name": "Orange", "pbrMetallicRoughness": {"baseColorFactor": [1, 0.131321, 0.00246086, 1], "metallicFactor": 0, "roughnessFactor": 0.8239417257}}, {"doubleSided": true, "emissiveFactor": [0, 0, 0], "name": "White", "pbrMetallicRoughness": {"baseColorFactor": [0.8, 0.8, 0.8, 1], "metallicFactor": 0, "roughnessFactor": 0.8239417257}}], "meshes": [{"name": "Cylinder.003_Brown_0", "primitives": [{"attributes": {"NORMAL": 1, "POSITION": 0}, "indices": 2, "material": 0, "mode": 4}]}, {"name": "Cylinder.002_Brown_0", "primitives": [{"attributes": {"NORMAL": 4, "POSITION": 3}, "indices": 5, "material": 0, "mode": 4}]}, {"name": "Icosphere.008_Black_0", "primitives": [{"attributes": {"NORMAL": 7, "POSITION": 6}, "indices": 8, "material": 1, "mode": 4}]}, {"name": "Cylinder.001_Black_0", "primitives": [{"attributes": {"NORMAL": 10, "POSITION": 9}, "indices": 11, "material": 1, "mode": 4}]}, {"name": "Cylinder.001_Red_0", "primitives": [{"attributes": {"NORMAL": 13, "POSITION": 12}, "indices": 14, "material": 2, "mode": 4}]}, {"name": "Cube_Red_0", "primitives": [{"attributes": {"NORMAL": 16, "POSITION": 15}, "indices": 17, "material": 2, "mode": 4}]}, {"name": "Cylinder_Orange_0", "primitives": [{"attributes": {"NORMAL": 19, "POSITION": 18}, "indices": 20, "material": 3, "mode": 4}]}, {"name": "Icosphere.007_Black_0", "primitives": [{"attributes": {"NORMAL": 22, "POSITION": 21}, "indices": 23, "material": 1, "mode": 4}]}, {"name": "Icosphere.006_Black_0", "primitives": [{"attributes": {"NORMAL": 25, "POSITION": 24}, "indices": 26, "material": 1, "mode": 4}]}, {"name": "Icosphere.005_Black_0", "primitives": [{"attributes": {"NORMAL": 28, "POSITION": 27}, "indices": 29, "material": 1, "mode": 4}]}, {"name": "Icosphere.004_Black_0", "primitives": [{"attributes": {"NORMAL": 31, "POSITION": 30}, "indices": 32, "material": 1, "mode": 4}]}, {"name": "Icosphere.003_Black_0", "primitives": [{"attributes": {"NORMAL": 34, "POSITION": 33}, "indices": 35, "material": 1, "mode": 4}]}, {"name": "Torus_Red_0", "primitives": [{"attributes": {"NORMAL": 37, "POSITION": 36}, "indices": 38, "material": 2, "mode": 4}]}, {"name": "Icosphere.002_White_0", "primitives": [{"attributes": {"NORMAL": 40, "POSITION": 39}, "indices": 41, "material": 4, "mode": 4}]}, {"name": "Icosphere.001_White_0", "primitives": [{"attributes": {"NORMAL": 43, "POSITION": 42}, "indices": 44, "material": 4, "mode": 4}]}, {"name": "Icosphere_White_0", "primitives": [{"attributes": {"NORMAL": 46, "POSITION": 45}, "indices": 47, "material": 4, "mode": 4}]}], "nodes": [{"children": [1], "name": "RootNode (gltf orientation matrix)", "rotation": [-0.7071067811865475, 0, 0, 0.7071067811865476]}, {"children": [2], "name": "RootNode (model correction matrix)"}, {"children": [3], "matrix": [1, 0, 0, 0, 0, 0, 1, 0, 0, -1, 0, 0, 0, 0, 0, 1], "name": "b4d0d993b7b240ea9449daa07c4a681e.fbx"}, {"children": [4, 6, 8, 10, 13, 15, 17, 19, 21, 23, 25, 27, 29, 31, 33], "name": "RootNode"}, {"children": [5], "matrix": [8.332414627075195, 1.8501677139404642e-15, -1.8501676036618752e-15, 0, 1.8501674345729075e-15, -8.332414627075103, -1.2581596050297253e-06, 0, -1.8501678830294064e-15, 1.2581596050297253e-06, -8.332414627075103, 0, 0, 220.9961395263672, -70.6195297241211, 1], "name": "Cylinder.003"}, {"mesh": 0, "name": "Cylinder.003_Brown_0"}, {"children": [7], "matrix": [8.02578067779541, -1.7820812998160326e-15, -1.782081087375387e-15, 0, 1.7820811652726455e-15, 8.025780677795387, -6.059295971790643e-07, 0, 7.751575091153487e-15, 2.635631145604411e-06, 34.90999221801748, 0, 1.3902604579925537, 225.72055053710938, 95.13870239257812, 1], "name": "Cylinder.002"}, {"mesh": 1, "name": "Cylinder.002_Brown_0"}, {"children": [9], "matrix": [87.44585418701172, 0, 0, 0, 0, -3.671966263616176e-05, -225.38368225097358, 0, 0, 33.104522705077684, -5.393411330053637e-06, 0, -81.43502044677734, 298.03753662109375, 0, 1], "name": "Icosphere.008"}, {"mesh": 2, "name": "Icosphere.008_Black_0"}, {"children": [11, 12], "matrix": [30.406129837036133, 0, 0, 0, 0, -4.953787330726163e-06, -30.40612983703573, 0, 0, 30.40612983703573, -4.953787330726163e-06, 0, -2.6910901069641113, 383.4571533203125, -1.061248779296875, 1], "name": "Cylinder.001"}, {"mesh": 3, "name": "Cylinder.001_Black_0"}, {"mesh": 4, "name": "Cylinder.001_Red_0"}, {"children": [14], "matrix": [58.9498405456543, 0, 0, 0, 0, -2.1828480474235957e-06, -13.39822578430158, 0, 0, 0.5283052921295096, -8.607185712004081e-08, 0, 130.01657104492188, 183.52833557128906, 5.373336315155029, 1], "name": "Cube"}, {"mesh": 5, "name": "Cube_Red_0"}, {"children": [16], "matrix": [100, 0, 0, 0, 0, -1.629206793918314e-05, -99.99999999999868, 0, 0, 99.99999999999868, -1.629206793918314e-05, 0, 212.76028442382812, 199.96205139160156, 0, 1], "name": "Cylinder"}, {"mesh": 6, "name": "Cylinder_Orange_0"}, {"children": [18], "matrix": [11.238667488098145, 0, 0, 0, 0, -1.831011342619837e-06, -11.238667488097995, 0, 0, 11.238667488097995, -1.831011342619837e-06, 0, 41.607521057128906, 324.1615905761719, -18.07318878173828, 1], "name": "Icosphere.007"}, {"mesh": 7, "name": "Icosphere.007_Black_0"}, {"children": [20], "matrix": [11.238667488098145, 0, 0, 0, 0, -1.831011342619837e-06, -11.238667488097995, 0, 0, 11.238667488097995, -1.831011342619837e-06, 0, 41.607521057128906, 324.1615905761719, 16.419109344482422, 1], "name": "Icosphere.006"}, {"mesh": 8, "name": "Icosphere.006_Black_0"}, {"children": [22], "matrix": [11.238667488098145, 0, 0, 0, 0, -1.831011342619837e-06, -11.238667488097995, 0, 0, 11.238667488097995, -1.831011342619837e-06, 0, 56.66862869262695, 236.46910095214844, 0, 1], "name": "Icosphere.005"}, {"mesh": 9, "name": "Icosphere.005_Black_0"}, {"children": [24], "matrix": [11.238667488098145, 0, 0, 0, 0, -1.831011342619837e-06, -11.238667488097995, 0, 0, 11.238667488097995, -1.831011342619837e-06, 0, 62.265525817871094, 216.18032836914062, 0, 1], "name": "Icosphere.004"}, {"mesh": 10, "name": "Icosphere.004_Black_0"}, {"children": [26], "matrix": [11.238667488098145, 0, 0, 0, 0, -1.831011342619837e-06, -11.238667488097995, 0, 0, 11.238667488097995, -1.831011342619837e-06, 0, 58.65734100341797, 193.792724609375, 0, 1], "name": "Icosphere.003"}, {"mesh": 11, "name": "Icosphere.003_Black_0"}, {"children": [28], "matrix": [47.02031707763672, 0, 0, 0, 0, -7.660582003507907e-06, -47.0203170776361, 0, 0, 47.0203170776361, -7.660582003507907e-06, 0, 0, 262.26544189453125, 0, 1], "name": "Torus"}, {"mesh": 12, "name": "Torus_Red_0"}, {"children": [30], "matrix": [56.1831169128418, 0, 0, 0, 0, -9.153391577790879e-06, -56.18311691284106, 0, 0, 56.18311691284106, -9.153391577790879e-06, 0, 0, 245.97044372558594, 0, 1], "name": "Icosphere.002"}, {"mesh": 13, "name": "Icosphere.002_White_0"}, {"children": [32], "matrix": [74.02263641357422, 0, 0, 0, 0, -1.205981821487403e-05, -74.02263641357324, 0, 0, 74.02263641357324, -1.205981821487403e-05, 0, 0, 137.1849822998047, 0, 1], "name": "Icosphere.001"}, {"mesh": 14, "name": "Icosphere.001_White_0"}, {"children": [34], "matrix": [100, 0, 0, 0, 0, -1.629206793918314e-05, -99.99999999999868, 0, 0, 99.99999999999868, -1.629206793918314e-05, 0, 0, 0, 0, 1], "name": "Icosphere"}, {"mesh": 15, "name": "Icosphere_White_0"}, {"name": "TreeWrapper", "children": [0]}], "scene": 0, "scenes": [{"name": "OSG_Scene", "nodes": [35]}]}